PathFileType	4	(X/Y/Z)	\\147.46.242.158\로컬 디스크 (e)\MOCAP Data\Iguana Capture\iguana\Project 2\Capture day 7\Session 2\Take01.trc
DataRate	CameraRate	NumFrames	NumMarkers	Units	OrigDataRate	OrigDataStartFrame	OrigNumFrames
120.0	120.0	13	23	mm	120.0	157	1930
Frame#	Time	ana:head1			ana:head2			ana:bone1			ana:bone2			ana:bone3			ana:tail1			ana:tail2			ana:tail3			ana:tail4			ana:Rforefoot1			ana:Rforefoot2			ana:Rforefoot3			ana:Lforefoot1			ana:Lforefoot2			ana:Lforefoot3			ana:RhindLeg1			ana:RhindLeg2			ana:RhindLeg3			ana:RhindLeg4			ana:LhindLeg1			ana:LhindLeg2			ana:LhindLeg3			ana:LhindLeg4			
		X1	Y1	Z1	X2	Y2	Z2	X3	Y3	Z3	X4	Y4	Z4	X5	Y5	Z5	X6	Y6	Z6	X7	Y7	Z7	X8	Y8	Z8	X9	Y9	Z9	X10	Y10	Z10	X11	Y11	Z11	X12	Y12	Z12	X13	Y13	Z13	X14	Y14	Z14	X15	Y15	Z15	X16	Y16	Z16	X17	Y17	Z17	X18	Y18	Z18	X19	Y19	Z19	X20	Y20	Z20	X21	Y21	Z21	X22	Y22	Z22	X23	Y23	Z23	

1056	8.792	-259.63223	-439.99921	50.61272	-249.76099	-440.77670	51.73435	-228.51669	-441.64810	43.97451	-199.99274	-443.62970	42.88890	-165.67902	-444.47943	37.38768	-133.13525	-440.43076	29.12023	-97.40718	-442.36957	18.03701	-52.90309	-449.09964	9.08833	-15.45456	-458.59149	7.11303	-227.33597	-429.74203	28.05407	-211.78261	-425.15405	25.61101	-211.76860	-424.12326	13.50333	-233.95868	-453.58163	25.62706	-232.03918	-465.37314	20.65606	-239.70450	-464.34689	5.78043	-166.11314	-434.91772	29.77269	-174.35088	-418.82794	21.81809	-164.63197	-420.93689	4.02567	-175.94130	-417.79312	5.40670	-162.33252	-453.45279	31.35731	-154.40266	-469.06570	27.67447	-132.33379	-476.89847	22.24725	-132.69272	-483.03668	10.94232	
1057	8.800	-260.86667	-439.96887	50.80984	-251.26903	-440.79282	51.72337	-229.94635	-441.60553	44.32691	-201.30676	-443.22546	43.11759	-167.22078	-444.17371	37.89579	-134.69762	-440.84866	29.61458	-98.71754	-442.80811	18.52130	-54.27084	-449.14597	9.12893	-16.77804	-458.13708	7.18032	-229.12140	-429.66272	28.62813	-213.68192	-424.64847	27.06723	-213.26881	-423.33786	13.62991	-235.02077	-453.55826	25.62901	-232.44398	-465.28580	20.76463	-239.05772	-463.85098	5.05890	-167.31392	-434.68466	29.80031	-174.62643	-418.40466	21.64861	-164.58420	-420.97491	4.06503	-176.21239	-417.73639	5.32387	-163.42583	-453.15863	31.88701	-156.52945	-469.44077	28.19780	-134.09329	-477.32867	23.06303	-134.07567	-483.63519	11.83529	
1058	8.808	-262.42126	-440.01563	50.94667	-252.04684	-440.38434	51.02982	-231.33398	-441.51108	44.54369	-202.64178	-442.83978	43.13642	-168.50868	-444.16699	37.94928	-135.86601	-441.39334	29.52318	-100.03603	-443.22894	18.74483	-55.48575	-449.38980	9.18528	-17.90464	-457.93124	7.33288	-230.62730	-429.67691	28.85342	-216.12727	-424.10455	28.07958	-214.85277	-422.50253	13.74413	-236.16914	-453.73657	25.80124	-233.04756	-465.25229	21.00838	-239.02794	-463.80164	4.97908	-169.99339	-434.11395	31.53705	-175.22633	-418.04947	21.44820	-164.54347	-420.82632	4.23625	-176.26402	-417.75043	5.32098	-165.59840	-453.31061	31.40883	-158.31808	-469.41290	28.40586	-135.82106	-477.35812	23.01313	-134.50766	-483.07770	11.33726	
1059	8.817	-264.62515	-440.55325	52.04105	-253.33606	-440.29324	51.35067	-232.88901	-441.63681	44.70683	-204.21896	-442.59198	43.31782	-170.07344	-444.04895	37.77727	-137.28267	-441.73181	29.75883	-101.57166	-443.87469	19.07372	-56.85946	-449.36365	9.17712	-19.23952	-457.67834	7.18806	-232.83308	-429.73587	29.33328	-218.50928	-423.14133	29.37272	-216.52434	-421.61505	13.84554	-236.96992	-453.84155	25.93852	-233.38484	-465.22189	21.05349	-239.15462	-463.89920	5.14875	-169.84088	-434.29266	30.08581	-175.70287	-418.02673	21.61570	-164.50830	-420.40149	4.59767	-177.12682	-417.68030	5.95534	-166.79268	-452.38705	30.02509	-160.18008	-469.45905	28.66899	-137.40784	-477.29471	23.72483	-135.72308	-482.93805	12.02497	
1060	8.825	-266.09341	-440.67859	52.01102	-254.96461	-440.55429	51.66184	-234.12135	-441.54135	44.68199	-205.50853	-442.22159	43.42186	-171.47795	-443.79736	37.71395	-138.72542	-442.14127	29.83718	-102.80206	-444.15314	18.74867	-58.28370	-449.48801	9.50198	-20.51590	-457.64447	7.42235	-234.91589	-429.94324	29.82580	-221.18129	-422.25974	30.38939	-218.28745	-420.67319	13.93368	-238.01981	-454.07584	26.00929	-233.86606	-465.27652	21.21774	-239.28293	-463.85272	5.23403	-171.38972	-434.01968	30.19094	-174.87888	-416.43051	20.10608	-164.47945	-419.75031	5.11650	-176.33224	-417.81186	5.20845	-168.68230	-453.22226	32.01357	-161.94707	-469.35223	28.72953	-139.07671	-477.07617	23.88171	-136.57413	-482.66171	12.25857	
1061	8.833	-267.40402	-440.89740	52.36321	-256.25058	-440.77475	51.90959	-235.59218	-441.63062	44.48160	-207.00349	-441.94678	43.25113	-172.97740	-443.62949	38.04067	-140.20148	-442.50275	29.78109	-104.44912	-444.63989	18.93181	-59.58480	-449.58838	9.57107	-21.80006	-457.62439	7.17069	-236.69252	-430.25256	29.99775	-223.93814	-421.83835	31.15513	-220.14598	-419.67471	14.00809	-239.07869	-454.34436	25.98867	-234.35130	-465.29242	21.31134	-239.30615	-463.85925	5.24361	-173.49078	-433.43677	31.35578	-175.25620	-415.66406	18.59544	-164.45767	-418.92270	5.75996	-177.38947	-417.63232	6.43921	-170.26636	-452.79822	31.56277	-163.66118	-469.27313	28.66295	-140.43053	-476.42911	23.60898	-137.52733	-482.42801	12.56172	
1062	8.842	-268.91165	-441.25281	52.51836	-257.80914	-441.04407	51.81504	-236.90123	-441.73535	44.82859	-208.39044	-441.66357	43.21540	-177.10033	-443.62872	40.25933	-141.58600	-442.84283	29.54697	-105.71069	-444.89328	18.97964	-61.09254	-449.82364	9.60794	-23.35012	-457.78430	7.24275	-239.02953	-430.53058	30.48104	-226.64888	-421.47876	32.00960	-222.10381	-418.61737	14.06832	-240.05289	-454.60828	26.27843	-234.72308	-465.32016	21.44952	-239.32047	-463.82095	5.22386	-175.16524	-433.30991	31.53595	-175.49739	-415.89310	19.91498	-164.44374	-417.96851	6.49528	-177.42238	-417.55045	6.53331	-171.80516	-452.65192	31.36627	-165.59059	-469.05643	28.61943	-142.65262	-476.64700	24.64952	-138.70049	-482.03873	12.59297	
1063	8.850	-270.18127	-441.51361	52.75606	-259.06808	-441.32312	52.14298	-238.34135	-441.92932	44.81022	-209.76949	-441.40158	43.05933	-178.16057	-443.16818	40.11678	-142.97096	-443.05222	29.54239	-107.25887	-445.21741	18.76113	-62.50607	-449.94763	9.52522	-24.69059	-457.85239	7.12713	-240.95923	-430.89246	30.33720	-229.65944	-421.22382	32.78156	-227.15700	-415.87970	14.19582	-240.92244	-454.90607	25.96661	-235.10315	-465.36865	21.57982	-239.43822	-463.84299	5.30224	-175.94316	-433.13837	31.01180	-175.84798	-415.68030	19.46746	-164.43843	-416.93762	7.28967	-177.40584	-417.54163	6.49075	-173.61560	-452.57974	31.45532	-167.73389	-469.08212	28.93799	-143.94724	-475.46933	24.42912	-140.22426	-481.38486	13.39353	
1064	8.858	-271.77737	-441.93518	52.86994	-260.36499	-441.60303	52.11022	-239.83646	-442.12149	45.23094	-211.18085	-441.07376	42.93837	-179.07748	-442.77679	39.53279	-144.49400	-443.22678	29.40862	-108.78480	-445.45660	18.77303	-63.94263	-450.04648	9.48742	-26.07991	-457.97845	7.35244	-243.31549	-431.19952	30.73502	-232.68297	-421.01450	33.21768	-232.83345	-413.87848	14.43711	-241.78221	-455.11035	26.33185	-235.51019	-465.35861	21.62152	-239.53856	-463.86188	5.36864	-177.33376	-432.82620	31.17086	-176.06351	-415.42993	19.08758	-164.44250	-415.88000	8.11036	-177.37532	-417.53336	6.48313	-175.19952	-452.18341	31.00472	-170.02165	-469.10693	29.27018	-146.04477	-474.54321	24.34869	-141.84450	-480.54733	13.17750	
1065	8.867	-272.99741	-442.32596	52.86636	-261.91626	-442.12454	52.44907	-241.02521	-442.20105	44.69340	-212.59016	-440.71271	42.98350	-181.14481	-442.77750	39.51818	-145.95673	-443.45676	29.27345	-110.12595	-445.60507	18.59517	-65.35447	-450.04196	9.55821	-27.52558	-457.86664	7.20641	-245.24593	-431.45157	30.95940	-235.31734	-420.83914	33.94185	-238.24835	-412.30368	15.34309	-242.77960	-455.47968	26.07352	-235.99889	-465.38370	21.66395	-239.58540	-463.83127	5.34505	-178.47658	-432.68420	31.04523	-176.44490	-415.12579	18.48476	-164.45673	-414.84549	8.92456	-177.29161	-417.58154	6.44394	-176.96555	-452.04926	30.95793	-172.40393	-469.10553	29.25513	-148.32239	-473.33832	23.95807	-144.13945	-479.60049	12.99107	
1066	8.875	-274.28088	-442.71320	53.05015	-263.03876	-442.44363	52.03132	-242.49641	-442.45325	44.91902	-213.86748	-440.52829	42.56413	-179.90155	-442.27298	37.38387	-147.34499	-443.84055	29.07665	-111.50598	-445.83490	18.83427	-66.72421	-450.10870	9.72728	-28.90153	-458.04391	7.47393	-247.16695	-431.83960	31.44709	-237.95366	-420.96796	34.51950	-245.46474	-411.30130	18.73306	-243.52168	-455.66095	26.26443	-236.59790	-465.45795	22.00701	-239.60873	-463.76660	5.41432	-178.06308	-432.86160	29.09674	-176.59087	-414.90936	18.34244	-164.48187	-413.88400	9.69950	-177.26868	-417.49802	6.45300	-178.59789	-451.85422	30.66803	-175.35347	-469.26926	29.47156	-151.07953	-471.71442	23.75459	-147.06451	-478.59497	13.34606	
1067	8.883	-275.69821	-443.18121	53.29809	-264.45169	-443.08463	52.22822	-243.74918	-442.68686	44.82809	-215.28755	-440.30402	42.73202	-182.94296	-442.06812	38.91357	-148.79749	-444.16333	29.13175	-112.89928	-445.94171	18.77047	-68.10074	-449.92218	9.36792	-30.26004	-457.79477	7.19383	-249.08337	-432.29074	31.55800	-240.65617	-420.95203	34.45380	-249.94731	-411.75964	18.84105	-244.34291	-455.92279	25.98265	-236.62267	-465.37799	21.68505	-239.81760	-463.74432	5.59252	-179.19783	-432.69598	29.26488	-176.80875	-414.86578	18.33437	-164.51869	-413.04544	10.40240	-177.32555	-417.54694	6.45485	-180.42729	-451.75354	30.75492	-178.30611	-469.21457	29.54756	-154.25282	-470.16995	23.48979	-150.32515	-477.88058	13.87415	
1068	8.892	-276.87921	-443.72311	53.24052	-265.57889	-443.42087	52.51212	-244.94354	-442.91638	44.85955	-216.51114	-440.03223	42.75634	-185.06927	-442.07080	38.78834	-150.17807	-444.50546	28.99665	-114.36108	-446.23413	18.68148	-69.39781	-449.88699	9.87965	-31.65406	-457.83298	7.44791	-251.23018	-432.70621	31.83674	-243.12119	-420.84888	34.33670	-255.31181	-412.84473	19.98936	-245.21686	-456.22208	26.23251	-236.99690	-465.28159	21.78369	-240.00674	-463.76685	5.75265	-180.44922	-432.47861	28.92739	-177.07314	-414.98999	18.38594	-164.56796	-412.37964	11.00047	-177.46332	-417.59045	6.28398	-181.98036	-451.49960	30.62941	-181.51862	-469.11563	30.12545	-158.11459	-469.32562	23.60857	-154.72920	-478.20734	15.18101	
